<svg version="1.1" xmlns="http://www.w3.org/2000/svg" viewBox="0 0 326.84765625 235.5" width="326.84765625" height="235.5" class="excalidraw-svg"><!-- svg-source:excalidraw --><metadata></metadata><defs><style class="style-fonts">
      </style></defs><rect x="0" y="0" width="326.84765625" height="235.5" fill="transparent"></rect><g stroke-linecap="round" transform="translate(10 10) rotate(0 153.423828125 107.75)"><path d="M7.86 8.16 C7.86 8.16, 7.86 8.16, 7.86 8.16 M7.86 8.16 C7.86 8.16, 7.86 8.16, 7.86 8.16 M1.43 27.75 C10.04 18.35, 16.34 8.62, 24.4 1.33 M1.43 27.75 C9.03 18.75, 18.39 7.28, 24.4 1.33 M0.91 40.54 C12.18 27.99, 22.72 17.21, 36.34 -0.21 M0.91 40.54 C12.35 25.8, 25.95 11.86, 36.34 -0.21 M1.04 52.58 C18.58 35.37, 32.06 17.49, 46.97 -0.25 M1.04 52.58 C16.42 32.79, 33.39 15.06, 46.97 -0.25 M1.18 64.62 C20.63 42.85, 36.9 24.64, 57.6 -0.28 M1.18 64.62 C14.92 47.81, 30.48 30.84, 57.6 -0.28 M0.65 77.42 C16.28 59.04, 32.54 40.1, 67.57 0.44 M0.65 77.42 C26.67 48.39, 51.22 19.52, 67.57 0.44 M0.79 89.46 C23.75 60.96, 50.41 32.64, 78.2 0.41 M0.79 89.46 C19.99 66.77, 40.94 45.12, 78.2 0.41 M0.92 101.5 C36.26 63.11, 70.47 23.21, 88.83 0.37 M0.92 101.5 C21.29 78.08, 42.49 54.38, 88.83 0.37 M1.05 113.54 C36.73 72.15, 77.23 27.41, 99.46 0.34 M1.05 113.54 C35.51 73.17, 70.13 33.33, 99.46 0.34 M0.53 126.34 C29.43 91.58, 60.06 57.9, 110.09 0.3 M0.53 126.34 C34.75 87.94, 68.08 48.44, 110.09 0.3 M0.66 138.38 C45.65 85.48, 95.59 31.39, 120.72 0.27 M0.66 138.38 C38.66 94.24, 75.98 53.08, 120.72 0.27 M0.8 150.42 C27.02 120.92, 55.33 90.25, 131.35 0.23 M0.8 150.42 C41.13 103.69, 82.28 58.73, 131.35 0.23 M0.93 162.46 C52.21 104.72, 101.16 47.34, 141.98 0.2 M0.93 162.46 C52.09 103.27, 103.6 43.5, 141.98 0.2 M0.41 175.26 C45.97 123.23, 88.61 74.55, 152.61 0.16 M0.41 175.26 C55.15 112.38, 110.37 47.36, 152.61 0.16 M1.2 186.54 C45.09 135.79, 89.43 86.37, 163.24 0.13 M1.2 186.54 C57.47 122.48, 112.04 60.52, 163.24 0.13 M1.99 197.83 C44.89 147.43, 87.68 100.21, 173.87 0.09 M1.99 197.83 C61.89 127.91, 121.78 58.26, 173.87 0.09 M6.71 204.59 C49.81 156.92, 91.96 108.32, 184.5 0.06 M6.71 204.59 C59.92 143.87, 113.92 81.98, 184.5 0.06 M12.09 210.59 C79.47 130.97, 149.79 49.91, 195.13 0.03 M12.09 210.59 C76.18 136.09, 140.93 60.74, 195.13 0.03 M20.1 213.57 C84.65 139.98, 148.61 67.05, 205.76 -0.01 M20.1 213.57 C80.99 143.14, 140.18 74.24, 205.76 -0.01 M28.76 215.8 C66.15 167.27, 106.41 121.03, 216.39 -0.04 M28.76 215.8 C96.02 135.66, 165.4 55.07, 216.39 -0.04 M39.39 215.77 C76.61 169.74, 118.06 123.6, 227.02 -0.08 M39.39 215.77 C102.05 142.92, 164.07 72.62, 227.02 -0.08 M50.02 215.73 C95.75 161.28, 140.77 109.49, 237.65 -0.11 M50.02 215.73 C93.97 167.1, 136.72 117.34, 237.65 -0.11 M60.65 215.7 C103.47 166.79, 147 115.4, 248.28 -0.15 M60.65 215.7 C102.75 166.15, 146.68 116.52, 248.28 -0.15 M71.28 215.67 C113.64 169.54, 153.94 123.34, 258.91 -0.18 M71.28 215.67 C128.87 150.33, 184.33 86.52, 258.91 -0.18 M81.91 215.63 C139.97 147.35, 198.89 78.77, 269.54 -0.22 M81.91 215.63 C156.88 128.17, 231.27 42.43, 269.54 -0.22 M91.89 216.35 C133.97 169.34, 174.72 122.77, 279.52 0.5 M91.89 216.35 C156.46 142.66, 221.42 67.15, 279.52 0.5 M102.52 216.32 C168.29 138.32, 235.16 61.22, 288.18 2.73 M102.52 216.32 C173.11 133.27, 246.66 50.16, 288.18 2.73 M113.15 216.28 C184.84 134.77, 257.48 51.98, 296.19 5.72 M113.15 216.28 C165.58 158.63, 215.75 100.75, 296.19 5.72 M123.78 216.25 C191.11 136.93, 259.72 59, 301.57 11.72 M123.78 216.25 C163.06 168.14, 203.29 122.26, 301.57 11.72 M134.41 216.21 C174.68 166.16, 219.31 116.9, 305.64 19.23 M134.41 216.21 C170.34 174.83, 206.52 133.67, 305.64 19.23 M145.04 216.18 C205.19 143.26, 269.38 72.29, 307.08 29.77 M145.04 216.18 C196.15 155.86, 247.65 98.55, 307.08 29.77 M155.67 216.14 C204.03 159.96, 254.89 102.02, 307.22 41.81 M155.67 216.14 C185.38 181.37, 216.15 145.21, 307.22 41.81 M166.3 216.11 C205.93 167.56, 248.21 121.23, 307.35 53.85 M166.3 216.11 C210.31 162.68, 255.59 111.17, 307.35 53.85 M176.93 216.08 C220.76 167.49, 261.67 119.95, 307.48 65.89 M176.93 216.08 C219.74 166.91, 262.38 119.24, 307.48 65.89 M187.56 216.04 C213.19 189.2, 238.64 158.99, 307.62 77.93 M187.56 216.04 C223.84 176.94, 257.35 135.76, 307.62 77.93 M198.19 216.01 C240.84 165.16, 281.93 118.05, 307.09 90.72 M198.19 216.01 C239.47 170.56, 279.27 123.81, 307.09 90.72 M208.82 215.97 C242.11 174.91, 277.7 135.21, 307.23 102.77 M208.82 215.97 C243.05 178.04, 277.14 137.82, 307.23 102.77 M219.45 215.94 C242.38 190.79, 261.91 166.89, 307.36 114.81 M219.45 215.94 C249.92 180.34, 280.97 144.83, 307.36 114.81 M230.08 215.9 C253.36 187.03, 281.18 156.23, 307.49 126.85 M230.08 215.9 C258.65 180.63, 287.96 147.62, 307.49 126.85 M240.71 215.87 C256.69 197.67, 269.63 181.64, 307.62 138.89 M240.71 215.87 C254.16 199.32, 267.48 182.34, 307.62 138.89 M251.34 215.83 C267.35 197.54, 281.48 179.86, 307.1 151.68 M251.34 215.83 C270.43 192.4, 289.76 170.73, 307.1 151.68 M261.97 215.8 C271.57 202.14, 284.31 193.37, 307.24 163.72 M261.97 215.8 C276.18 197.79, 291.57 182.14, 307.24 163.72 M272.6 215.76 C281.76 202.45, 292.08 193.46, 307.37 175.77 M272.6 215.76 C280.16 206.46, 286.85 199.28, 307.37 175.77 M284.54 214.22 C289.28 209.38, 293.79 202.5, 306.85 188.56 M284.54 214.22 C293.18 203.88, 301.06 195.19, 306.85 188.56 M12.6 211.09 C12.6 211.09, 12.6 211.09, 12.6 211.09 M12.6 211.09 C12.6 211.09, 12.6 211.09, 12.6 211.09 M29.17 214.89 C23.12 208.24, 14.7 201.77, 1.25 190.62 M29.17 214.89 C19.32 207.63, 10.37 197.97, 1.25 190.62 M41.21 214.76 C31.18 207.56, 21.15 196.77, 0.46 179.33 M41.21 214.76 C26.22 202.05, 10.63 188.75, 0.46 179.33 M54.01 215.28 C37.67 199, 18.36 183.4, 0.43 168.7 M54.01 215.28 C42.22 205.57, 31.37 196.23, 0.43 168.7 M66.05 215.15 C44.26 197.4, 21.07 177.8, 0.39 158.07 M66.05 215.15 C49.82 200.37, 34.06 186.77, 0.39 158.07 M78.09 215.02 C48.54 188.08, 19.33 166.93, 0.36 147.44 M78.09 215.02 C54.15 193.51, 28.71 171.74, 0.36 147.44 M90.13 214.88 C66.59 191.82, 39.42 172.32, 0.32 136.81 M90.13 214.88 C66.85 193.4, 42.2 172.64, 0.32 136.81 M102.17 214.75 C64.27 182.71, 31.11 149.83, 0.29 126.18 M102.17 214.75 C79.98 193.83, 58.17 174.92, 0.29 126.18 M114.97 215.27 C81.13 185.69, 48.87 157.64, 0.25 115.55 M114.97 215.27 C76.73 182.01, 36.65 147.85, 0.25 115.55 M127.01 215.14 C100.6 191.52, 76.48 169.09, 0.22 104.92 M127.01 215.14 C78.68 172.5, 31.24 132.21, 0.22 104.92 M139.05 215.01 C102.16 181.49, 64.24 151.89, 0.94 94.95 M139.05 215.01 C89.64 170.61, 41.14 128.37, 0.94 94.95 M151.09 214.87 C96.34 167.53, 45.92 122.44, 0.9 84.32 M151.09 214.87 C100.98 171.33, 50.2 129.29, 0.9 84.32 M163.13 214.74 C127.37 186.29, 92.53 154.16, 0.87 73.69 M163.13 214.74 C110.09 170.42, 57.82 125.17, 0.87 73.69 M175.93 215.26 C114.97 162.04, 57.21 111.47, 0.83 63.06 M175.93 215.26 C108.36 157.42, 41.84 97.81, 0.83 63.06 M187.97 215.13 C119.23 154.5, 50.99 94.79, 0.8 52.43 M187.97 215.13 C144.35 175.81, 99.5 138.02, 0.8 52.43 M200.01 215 C142.77 166.31, 88.24 117.67, 0.77 41.8 M200.01 215 C146.02 167.1, 91.03 119.67, 0.77 41.8 M212.05 214.86 C153.5 164.22, 97.44 114.82, 0.73 31.17 M212.05 214.86 C167.42 177.41, 124.12 140.06, 0.73 31.17 M224.09 214.73 C148.56 148.72, 76.46 82.86, 1.45 21.19 M224.09 214.73 C159.78 157.27, 95.03 101.42, 1.45 21.19 M236.89 215.25 C164.84 151.97, 91.22 88.27, 4.44 13.19 M236.89 215.25 C156.27 145.95, 77.16 75.73, 4.44 13.19 M248.93 215.12 C184.49 157.41, 119.72 103.55, 9.68 7.15 M248.93 215.12 C155.44 133.28, 63.67 52.67, 9.68 7.15 M260.97 214.99 C167.96 133.41, 75.15 52.43, 16.44 2.42 M260.97 214.99 C199.4 162.01, 136.97 108.16, 16.44 2.42 M273.01 214.85 C198.13 148.89, 123.8 86.21, 26.22 0.32 M273.01 214.85 C210.98 163.05, 148.66 109.57, 26.22 0.32 M284.3 214.07 C228.24 168.05, 174.79 121.2, 37.51 -0.47 M284.3 214.07 C198.15 142.06, 114.51 68.45, 37.51 -0.47 M293.32 211.31 C236.56 162.36, 177.76 109.94, 49.55 -0.6 M293.32 211.31 C237.06 162.28, 179.53 114.08, 49.55 -0.6 M299.32 205.93 C235.44 150.58, 174.44 97.22, 61.59 -0.73 M299.32 205.93 C222.24 137.27, 144.78 69.67, 61.59 -0.73 M303.81 199.23 C223.62 128.78, 143.98 60.8, 73.63 -0.87 M303.81 199.23 C251.02 153.58, 197.21 106.53, 73.63 -0.87 M306.8 191.23 C221.79 116.87, 135.28 44.24, 85.67 -1 M306.8 191.23 C235.31 128.43, 165.18 67.1, 85.67 -1 M306.76 180.6 C250.51 130.94, 194.49 81.31, 98.46 -0.48 M306.76 180.6 C264.46 142.63, 221.28 105.53, 98.46 -0.48 M306.73 169.97 C231.75 104.62, 158.55 40.52, 110.51 -0.61 M306.73 169.97 C240.99 111.67, 176.06 55.71, 110.51 -0.61 M306.7 159.34 C245.73 105.55, 185.21 50.35, 122.55 -0.74 M306.7 159.34 C261.01 118.15, 215.17 78.15, 122.55 -0.74 M306.66 148.71 C260.73 107.27, 212.05 66.5, 134.59 -0.87 M306.66 148.71 C241.31 89.87, 176.33 33.92, 134.59 -0.87 M306.63 138.08 C270.28 105.98, 234.69 72.7, 146.63 -1.01 M306.63 138.08 C254.13 92.51, 202.47 47.67, 146.63 -1.01 M306.59 127.45 C277.86 100.2, 248.57 73.8, 159.42 -0.48 M306.59 127.45 C250.94 75.61, 192.41 26.23, 159.42 -0.48 M307.31 117.47 C263.64 79.7, 218.34 43.83, 171.46 -0.62 M307.31 117.47 C262.97 80.43, 218.93 39.74, 171.46 -0.62 M307.28 106.84 C267.61 70.42, 225.14 35.85, 183.5 -0.75 M307.28 106.84 C273.34 78.55, 239.5 48.65, 183.5 -0.75 M307.24 96.21 C269.96 61.95, 232.57 27.54, 195.55 -0.88 M307.24 96.21 C281.45 74.1, 257.04 52.02, 195.55 -0.88 M307.21 85.58 C274.68 53.73, 240.77 23.6, 207.59 -1.02 M307.21 85.58 C282.44 62.62, 258.35 42.43, 207.59 -1.02 M307.17 74.95 C280.73 51.52, 251.6 25.29, 220.38 -0.49 M307.17 74.95 C279.68 49.35, 251.27 25.25, 220.38 -0.49 M307.14 64.32 C281.24 38.73, 252.93 15.59, 232.42 -0.63 M307.14 64.32 C281.45 41.73, 254.72 18.85, 232.42 -0.63 M307.1 53.69 C292.38 41.98, 275.61 28.33, 244.46 -0.76 M307.1 53.69 C282.6 32.47, 259.43 11.74, 244.46 -0.76 M307.07 43.06 C294.91 32.16, 283.77 22.59, 256.5 -0.89 M307.07 43.06 C292.89 30.69, 279.12 18.29, 256.5 -0.89 M307.04 32.43 C295.73 22.54, 279.11 11.01, 268.55 -1.03 M307.04 32.43 C295.35 21.48, 281.48 10.21, 268.55 -1.03 M305.49 20.49 C294.65 12.21, 287.39 5.4, 282.1 0.15 M305.49 20.49 C296.92 13.37, 287.41 4.21, 282.1 0.15" stroke="#ffc9c9" stroke-width="1" fill="none"></path><path d="M32 0 C106.99 -0.64, 179.21 -0.09, 274.85 0 M32 0 C103.42 0.15, 175.85 0.87, 274.85 0 M274.85 0 C297.2 1.99, 307.04 11.19, 306.85 32 M274.85 0 C294.87 1.69, 306.83 10.04, 306.85 32 M306.85 32 C306.14 70.4, 305.4 106.91, 306.85 183.5 M306.85 32 C309.2 72.65, 309.26 114.3, 306.85 183.5 M306.85 183.5 C308.6 204.05, 297.89 213.88, 274.85 215.5 M306.85 183.5 C306.78 205.59, 295.74 214.23, 274.85 215.5 M274.85 215.5 C179.72 218.14, 80.63 217.83, 32 215.5 M274.85 215.5 C186.52 216.25, 99.82 215.04, 32 215.5 M32 215.5 C12.11 215.43, -1.95 206.4, 0 183.5 M32 215.5 C11.47 217.25, 1.5 204, 0 183.5 M0 183.5 C-1.86 126.89, -1.18 68, 0 32 M0 183.5 C0.97 130.58, 0.15 78.92, 0 32 M0 32 C1.37 12.06, 8.89 0.77, 32 0 M0 32 C-2.25 9.47, 10.76 0.59, 32 0" stroke="#1e1e1e" stroke-width="2" fill="none"></path></g><g stroke-linecap="round" transform="translate(87.44308284659832 60.4157199815545) rotate(0 73.45929965336475 58.985649336251356)"><path d="M92.5 14.75 C104.39 27.46, 116.93 32.79, 128.42 44.25 C148.78 60.79, 147.1 62.09, 128.42 73.75 C118.86 81.53, 110.64 84.36, 92.5 103.22 C76.38 115.2, 73.2 119.78, 55.5 103.22 C44.74 95.14, 40.35 85.45, 18.5 73.75 C-1.98 62.34, -1.59 58.9, 18.5 44.25 C32.94 33.76, 40.51 26.6, 55.5 14.75 C74.73 -3.01, 76.63 0.6, 92.5 14.75" stroke="none" stroke-width="0" fill="#ffffff"></path><path d="M92.5 14.75 C100.54 23.86, 113.95 32.75, 128.42 44.25 M92.5 14.75 C100.01 20.57, 106.73 27.34, 128.42 44.25 M128.42 44.25 C148.51 57.71, 148.36 58.93, 128.42 73.75 M128.42 44.25 C144.68 60.8, 147.72 60.75, 128.42 73.75 M128.42 73.75 C117 86.52, 101.59 95.81, 92.5 103.22 M128.42 73.75 C116.49 82.1, 106.06 91.8, 92.5 103.22 M92.5 103.22 C72.57 119.13, 75.37 119.37, 55.5 103.22 M92.5 103.22 C71.96 118.85, 71.75 116.77, 55.5 103.22 M55.5 103.22 C42.99 93.95, 34.91 84.52, 18.5 73.75 M55.5 103.22 C42.23 92.87, 29.86 82.15, 18.5 73.75 M18.5 73.75 C-0.08 58.91, 0.28 60.1, 18.5 44.25 M18.5 73.75 C0.91 58.79, 0.64 58.95, 18.5 44.25 M18.5 44.25 C28.22 36.26, 34.25 31.66, 55.5 14.75 M18.5 44.25 C28.95 35.9, 40.61 26.82, 55.5 14.75 M55.5 14.75 C74.92 0.5, 75.14 1.05, 92.5 14.75 M55.5 14.75 C72.36 -2.28, 72.97 -0.08, 92.5 14.75" stroke="#1e1e1e" stroke-width="2" fill="none"></path></g></svg>