<?xml version="1.0" encoding="UTF-8" standalone="no"?>
<!-- Created with Inkscape (http://www.inkscape.org/) -->

<svg
   width="209.16234mm"
   height="209.19521mm"
   viewBox="0 0 209.16234 209.19521"
   version="1.1"
   id="svg5"
   xml:space="preserve"
   inkscape:export-filename="bitmap.svg"
   inkscape:export-xdpi="12.143678"
   inkscape:export-ydpi="12.143678"
   xmlns:inkscape="http://www.inkscape.org/namespaces/inkscape"
   xmlns:sodipodi="http://sodipodi.sourceforge.net/DTD/sodipodi-0.dtd"
   xmlns="http://www.w3.org/2000/svg"
   xmlns:svg="http://www.w3.org/2000/svg"><sodipodi:namedview
     id="namedview7"
     pagecolor="#ffffff"
     bordercolor="#000000"
     borderopacity="0.25"
     inkscape:showpageshadow="2"
     inkscape:pageopacity="0.0"
     inkscape:pagecheckerboard="0"
     inkscape:deskcolor="#d1d1d1"
     inkscape:document-units="mm"
     showgrid="false" /><defs
     id="defs2" /><g
     inkscape:label="Layer 1"
     inkscape:groupmode="layer"
     id="layer1"
     transform="translate(-0.87572487,-0.37992747)"><g
       id="g215"
       transform="matrix(5.4380429,0,0,4.1962671,-104.59838,-45.624588)"><g
         id="color"><path
           fill="#a57939"
           d="M 35.6648,60.7711 A 31.3627,31.3627 0 0 1 25.8328,59.3187 0.9588,0.9588 0 0 1 25.18,58.4106 v -0.3919 a 0.8758,0.8758 0 0 1 0.0065,-0.11 5.694,5.694 0 0 0 -0.8856,-3.8812 0.9866,0.9866 0 0 1 -0.1749,-0.3788 c -0.015,-0.0673 -0.029,-0.1328 -0.043,-0.1954 a 11.2648,11.2648 0 0 0 0.0486,3.4575 0.9583,0.9583 0 0 1 -1.429,1.0091 c -2.6981,-1.603 -3.2649,-3.3472 -3.2649,-4.5284 V 18.3849 a 0.9581,0.9581 0 0 1 0.8941,-0.9558 0.9691,0.9691 0 0 1 1.0128,0.83 c 0.0075,0.0411 -0.5016,5.5907 14.32,5.5907 14.7728,0 14.3126,-5.5514 14.3229,-5.6076 a 0.99,0.99 0 0 1 1.025,-0.8033 0.9518,0.9518 0 0 1 0.8791,0.9464 v 9.0062 a 3.0992,3.0992 0 0 0 1.5553,-1 0.968,0.968 0 0 1 0.9941,-0.3694 c 2.6673,0.6275 3.2761,5.6234 3.3706,6.6185 a 0.9556,0.9556 0 0 1 -0.3788,0.8567 c -2.23,1.6722 -4.6929,7.15 -5.5412,9.3326 v 10.5613 c 2e-4,4.2076 -6.9756,7.3799 -16.2268,7.3799 z"
           id="path182" /><path
           fill="#6a462f"
           d="m 26.1377,59.3682 a 0.6074,0.6074 0 0 1 -0.1936,-0.02 11.0947,11.0947 0 0 1 -3.364,-1.5151 0.9578,0.9578 0 0 1 -0.3274,-0.55 11.9768,11.9768 0 0 1 0.3451,-5.7376 1.62,1.62 0 0 1 1.4908,-1.3326 c 1.0128,0.04 1.4889,1.1578 1.8686,2.843 a 7.7564,7.7564 0 0 1 1.1381,5.0166 v 0.3376 a 0.9572,0.9572 0 0 1 -0.9576,0.9576 z"
           id="path184" /><path
           fill="#fcea2b"
           d="m 35.6648,25.7648 c -9.2513,0 -16.2271,-3.1723 -16.2271,-7.38 0,-4.2077 6.9758,-7.38 16.2271,-7.38 9.2513,0 16.227,3.1723 16.227,7.38 0,4.2077 -6.9758,7.38 -16.227,7.38 z"
           id="path186" /></g><g
         id="line"><path
           fill="none"
           stroke="#000000"
           stroke-linecap="round"
           stroke-linejoin="round"
           stroke-width="2"
           d="m 50.934,42.6522 c 0,0 2.91,-7.66 5.9244,-9.921 0,0 -0.5023,-5.2745 -2.6372,-5.7768 A 4.1563,4.1563 0 0 1 50.934,28.4793 V 18.3852"
           id="path189" /><path
           fill="none"
           stroke="#000000"
           stroke-linecap="round"
           stroke-linejoin="round"
           stroke-width="2"
           d="m 50.934,46.034 v 7.3576 c 0,2.9685 -4.7887,5.4666 -11.2944,6.2023 L 39.6221,59.5465 A 11.4324,11.4324 0 0 1 38.9285,55.8939 6.2742,6.2742 0 0 1 39.23,53.6271 c 0.2165,-0.6044 0.566,-1.155 0.7737,-1.7625 a 8.1179,8.1179 0 0 0 0.2887,-2.6551 L 40.2709,39.1362"
           id="path191" /><path
           fill="none"
           stroke="#000000"
           stroke-linecap="round"
           stroke-linejoin="round"
           stroke-width="2"
           d="m 20.3956,18.3852 v 35.0064 c 0,1.38 1.0348,2.6583 2.7959,3.7052 a 11.088,11.088 0 0 1 0.3037,-5.2173 c 0,0 0.7152,-2.3759 1.5671,1.5671 a 6.6658,6.6658 0 0 1 1.0752,4.5725 v 0.3914 a 30.5618,30.5618 0 0 0 9.5273,1.4032 q 0.2328,0 0.464,-0.0029"
           id="path193" /><path
           fill="none"
           stroke="#000000"
           stroke-linecap="round"
           stroke-linejoin="round"
           stroke-width="2"
           d="m 38.0678,19.6992 c 7.1175,-2.4351 -9.8937,-4.0178 -8.7109,0.2467 2.3788,2.7141 15.2131,2.5557 16.4137,-1.4415 1.1582,-5.4256 -22.2033,-4.7544 -19.9212,0.91"
           id="path195" /><path
           fill="none"
           stroke="#000000"
           stroke-linecap="round"
           stroke-linejoin="round"
           stroke-width="2"
           d="m 31.3506,48.3638 a 75.095,75.095 0 0 1 -0.5041,-9.564 4.6685,4.6685 0 0 0 -0.2721,-2.0361 8.1822,8.1822 0 0 0 -0.993,-1.3624 8.1053,8.1053 0 0 1 -1.164,-5.5933 53.8785,53.8785 0 0 0 0.5412,-5.44 l -0.0053,-0.2127 a 33.5233,33.5233 0 0 0 6.7115,0.652 c 8.433,0 15.2692,-2.8752 15.2692,-6.422 0,-3.5468 -6.8362,-6.4221 -15.2692,-6.4221 -8.433,0 -15.2692,2.8753 -15.2692,6.4221 0,1.9436 2.0528,3.6855 5.2964,4.8632"
           id="path197" /></g></g></g></svg>
